<svg width="50" height="28" viewBox="0 0 50 28" fill="none" xmlns="http://www.w3.org/2000/svg">
<rect width="50" height="28" />
<path d="M3.64062 12.1562C3.0625 12.1562 2.53385 12.0104 2.05469 11.7188C1.58073 11.4271 1.20312 11.0365 0.921875 10.5469C0.645833 10.0521 0.507812 9.5026 0.507812 8.89844L0.523438 3.90625C0.523438 3.3125 0.658854 2.77604 0.929688 2.29688C1.20052 1.8125 1.57292 1.42448 2.04688 1.13281C2.52604 0.835938 3.05729 0.6875 3.64062 0.6875C4.23438 0.6875 4.76302 0.830729 5.22656 1.11719C5.69531 1.40365 6.06771 1.79167 6.34375 2.28125C6.625 2.76562 6.76562 3.30729 6.76562 3.90625V4.64062C6.76562 4.68229 6.74479 4.70312 6.70312 4.70312H4.90625C4.86458 4.70312 4.84375 4.68229 4.84375 4.64062V3.90625C4.84375 3.55208 4.72917 3.2474 4.5 2.99219C4.27083 2.73698 3.98438 2.60938 3.64062 2.60938C3.26042 2.60938 2.96875 2.73958 2.76562 3C2.5625 3.26042 2.46094 3.5625 2.46094 3.90625V8.89844C2.46094 9.28906 2.57552 9.60938 2.80469 9.85938C3.03385 10.1042 3.3125 10.2266 3.64062 10.2266C3.98438 10.2266 4.27083 10.0911 4.5 9.82031C4.72917 9.54427 4.84375 9.23698 4.84375 8.89844V8.15625C4.84375 8.11458 4.86458 8.09375 4.90625 8.09375H6.71875C6.76042 8.09375 6.78125 8.11458 6.78125 8.15625V8.89844C6.78125 9.4974 6.64062 10.0443 6.35938 10.5391C6.07292 11.0286 5.69531 11.4219 5.22656 11.7188C4.75781 12.0104 4.22917 12.1562 3.64062 12.1562Z" fill="#DC2626"/>
<path d="M10.9062 12.1562C10.3385 12.1562 9.8151 12.0104 9.33594 11.7188C8.86198 11.4271 8.47917 11.0391 8.1875 10.5547C7.90104 10.0651 7.75781 9.52865 7.75781 8.94531L7.77344 3.875C7.77344 3.28125 7.91667 2.7474 8.20312 2.27344C8.48438 1.79427 8.86458 1.41146 9.34375 1.125C9.82292 0.833333 10.3438 0.6875 10.9062 0.6875C11.4896 0.6875 12.013 0.830729 12.4766 1.11719C12.9453 1.40365 13.3203 1.78906 13.6016 2.27344C13.888 2.7526 14.0312 3.28646 14.0312 3.875L14.0469 8.94531C14.0469 9.52865 13.9062 10.0625 13.625 10.5469C13.3385 11.0365 12.9583 11.4271 12.4844 11.7188C12.0104 12.0104 11.4844 12.1562 10.9062 12.1562ZM10.9062 10.2266C11.2292 10.2266 11.5104 10.0964 11.75 9.83594C11.9896 9.57031 12.1094 9.27344 12.1094 8.94531L12.0938 3.875C12.0938 3.52083 11.9818 3.22135 11.7578 2.97656C11.5339 2.73177 11.25 2.60938 10.9062 2.60938C10.5781 2.60938 10.2969 2.72917 10.0625 2.96875C9.82812 3.20833 9.71094 3.51042 9.71094 3.875V8.94531C9.71094 9.29427 9.82812 9.59635 10.0625 9.85156C10.2969 10.1016 10.5781 10.2266 10.9062 10.2266Z" fill="#DC2626"/>
<path d="M17 12H15.3984C15.3151 12 15.2734 11.9635 15.2734 11.8906L15.2578 0.992188C15.2578 0.908854 15.2995 0.867188 15.3828 0.867188H16.8281L19.5312 7.17188L19.4531 0.992188C19.4531 0.908854 19.5 0.867188 19.5938 0.867188H21.1797C21.2422 0.867188 21.2734 0.908854 21.2734 0.992188L21.2891 11.9062C21.2891 11.9688 21.263 12 21.2109 12H19.8047L17.0312 6.10938L17.1484 11.875C17.1484 11.9583 17.099 12 17 12Z" fill="#DC2626"/>
<path d="M26.0938 12H24.2891C24.2422 12 24.2188 11.974 24.2188 11.9219V2.79688H22.1406C22.0885 2.79688 22.0625 2.77083 22.0625 2.71875L22.0781 0.929688C22.0781 0.888021 22.099 0.867188 22.1406 0.867188H28.2188C28.276 0.867188 28.3047 0.888021 28.3047 0.929688V2.71875C28.3047 2.77083 28.2839 2.79688 28.2422 2.79688H26.1406L26.1562 11.9219C26.1562 11.974 26.1354 12 26.0938 12Z" fill="#DC2626"/>
<path d="M28.5469 11.9219L30.5312 0.929688C30.5417 0.888021 30.5677 0.867188 30.6094 0.867188H32.9297C32.9714 0.867188 32.9974 0.888021 33.0078 0.929688L34.9141 11.9219C34.9193 11.974 34.8984 12 34.8516 12H33.0781C33.026 12 32.9974 11.974 32.9922 11.9219L32.8203 10.75H30.6406L30.4688 11.9219C30.4635 11.974 30.4375 12 30.3906 12H28.6094C28.5677 12 28.5469 11.974 28.5469 11.9219ZM31.6797 4.54688L30.9609 9.03906H32.5L31.8438 4.54688L31.75 3.95312L31.6797 4.54688Z" fill="#DC2626"/>
<path d="M38.8594 12.1562C38.2812 12.1562 37.7526 12.0104 37.2734 11.7188C36.7995 11.4271 36.4219 11.0365 36.1406 10.5469C35.8646 10.0521 35.7266 9.5026 35.7266 8.89844L35.7422 3.90625C35.7422 3.3125 35.8776 2.77604 36.1484 2.29688C36.4193 1.8125 36.7917 1.42448 37.2656 1.13281C37.7448 0.835938 38.276 0.6875 38.8594 0.6875C39.4531 0.6875 39.9818 0.830729 40.4453 1.11719C40.9141 1.40365 41.2865 1.79167 41.5625 2.28125C41.8438 2.76562 41.9844 3.30729 41.9844 3.90625V4.64062C41.9844 4.68229 41.9635 4.70312 41.9219 4.70312H40.125C40.0833 4.70312 40.0625 4.68229 40.0625 4.64062V3.90625C40.0625 3.55208 39.9479 3.2474 39.7188 2.99219C39.4896 2.73698 39.2031 2.60938 38.8594 2.60938C38.4792 2.60938 38.1875 2.73958 37.9844 3C37.7812 3.26042 37.6797 3.5625 37.6797 3.90625V8.89844C37.6797 9.28906 37.7943 9.60938 38.0234 9.85938C38.2526 10.1042 38.5312 10.2266 38.8594 10.2266C39.2031 10.2266 39.4896 10.0911 39.7188 9.82031C39.9479 9.54427 40.0625 9.23698 40.0625 8.89844V8.15625C40.0625 8.11458 40.0833 8.09375 40.125 8.09375H41.9375C41.9792 8.09375 42 8.11458 42 8.15625V8.89844C42 9.4974 41.8594 10.0443 41.5781 10.5391C41.2917 11.0286 40.9141 11.4219 40.4453 11.7188C39.9766 12.0104 39.4479 12.1562 38.8594 12.1562Z" fill="#DC2626"/>
<path d="M46.5781 12H44.7734C44.7266 12 44.7031 11.974 44.7031 11.9219V2.79688H42.625C42.5729 2.79688 42.5469 2.77083 42.5469 2.71875L42.5625 0.929688C42.5625 0.888021 42.5833 0.867188 42.625 0.867188H48.7031C48.7604 0.867188 48.7891 0.888021 48.7891 0.929688V2.71875C48.7891 2.77083 48.7682 2.79688 48.7266 2.79688H46.625L46.6406 11.9219C46.6406 11.974 46.6198 12 46.5781 12Z" fill="#DC2626"/>
<path d="M5.6125 26.1562C5.05 26.1562 4.52917 26.0104 4.05 25.7188C3.57083 25.4271 3.18802 25.0365 2.90156 24.5469C2.62031 24.0521 2.47969 23.513 2.47969 22.9297L2.51094 14.9297C2.51094 14.888 2.53177 14.8672 2.57344 14.8672H4.37031C4.41198 14.8672 4.43281 14.888 4.43281 14.9297V22.9297C4.43281 23.2891 4.5474 23.5964 4.77656 23.8516C5.00573 24.1016 5.28437 24.2266 5.6125 24.2266C5.95625 24.2266 6.24271 24.1016 6.47187 23.8516C6.70104 23.5964 6.81562 23.2891 6.81562 22.9297V14.9297C6.81562 14.888 6.83646 14.8672 6.87812 14.8672H8.675C8.71667 14.8672 8.7375 14.888 8.7375 14.9297L8.76875 22.9297C8.76875 23.5182 8.62812 24.0599 8.34687 24.5547C8.06042 25.0443 7.68021 25.4349 7.20625 25.7266C6.73229 26.013 6.20104 26.1562 5.6125 26.1562Z" fill="#DC2626"/>
<path d="M12.7453 26.1562C12.1776 26.1562 11.6542 26.0104 11.175 25.7188C10.701 25.4271 10.3208 25.0391 10.0344 24.5547C9.75312 24.0651 9.6125 23.5286 9.6125 22.9453V22.2109C9.6125 22.1536 9.63854 22.125 9.69062 22.125H11.4875C11.5292 22.125 11.55 22.1536 11.55 22.2109V22.9453C11.55 23.2943 11.6672 23.5964 11.9016 23.8516C12.1359 24.1016 12.4172 24.2266 12.7453 24.2266C13.0786 24.2266 13.3625 24.099 13.5969 23.8438C13.8312 23.5833 13.9484 23.2839 13.9484 22.9453C13.9484 22.5547 13.6932 22.2135 13.1828 21.9219C13.0995 21.8698 12.9901 21.8073 12.8547 21.7344C12.7245 21.6562 12.5682 21.5677 12.3859 21.4688C12.2036 21.3698 12.0266 21.2734 11.8547 21.1797C11.6828 21.0807 11.5161 20.987 11.3547 20.8984C10.7714 20.5547 10.3365 20.125 10.05 19.6094C9.76875 19.0885 9.62812 18.5052 9.62812 17.8594C9.62812 17.2656 9.77396 16.7292 10.0656 16.25C10.3573 15.776 10.7375 15.401 11.2062 15.125C11.6802 14.8438 12.1932 14.7031 12.7453 14.7031C13.313 14.7031 13.8339 14.8438 14.3078 15.125C14.7818 15.4115 15.1594 15.7917 15.4406 16.2656C15.7271 16.7396 15.8703 17.2708 15.8703 17.8594V19.1719C15.8703 19.2135 15.8495 19.2344 15.8078 19.2344H14.0109C13.9693 19.2344 13.9484 19.2135 13.9484 19.1719L13.9328 17.8594C13.9328 17.4844 13.8156 17.1797 13.5812 16.9453C13.3469 16.7109 13.0682 16.5938 12.7453 16.5938C12.4172 16.5938 12.1359 16.7188 11.9016 16.9688C11.6672 17.2188 11.55 17.5156 11.55 17.8594C11.55 18.2083 11.6229 18.5 11.7687 18.7344C11.9198 18.9688 12.1932 19.1927 12.5891 19.4062C12.6307 19.4271 12.7271 19.4792 12.8781 19.5625C13.0292 19.6458 13.1958 19.7396 13.3781 19.8438C13.5656 19.9427 13.7349 20.0339 13.8859 20.1172C14.037 20.1953 14.1281 20.2422 14.1594 20.2578C14.6906 20.5547 15.1099 20.9193 15.4172 21.3516C15.7297 21.7839 15.8859 22.3151 15.8859 22.9453C15.8859 23.5547 15.7453 24.1016 15.4641 24.5859C15.1776 25.0703 14.7974 25.4531 14.3234 25.7344C13.8495 26.0156 13.3234 26.1562 12.7453 26.1562Z" fill="#DC2626"/>
<path d="M21.2937 26H19.6922C19.6089 26 19.5672 25.9635 19.5672 25.8906L19.5516 14.9922C19.5516 14.9089 19.5932 14.8672 19.6766 14.8672H21.1219L23.825 21.1719L23.7469 14.9922C23.7469 14.9089 23.7937 14.8672 23.8875 14.8672H25.4734C25.5359 14.8672 25.5672 14.9089 25.5672 14.9922L25.5828 25.9062C25.5828 25.9688 25.5568 26 25.5047 26H24.0984L21.325 20.1094L21.4422 25.875C21.4422 25.9583 21.3927 26 21.2937 26Z" fill="#DC2626"/>
<path d="M29.9344 26.1562C29.3667 26.1562 28.8432 26.0104 28.3641 25.7188C27.8901 25.4271 27.5073 25.0391 27.2156 24.5547C26.9292 24.0651 26.7859 23.5286 26.7859 22.9453L26.8016 17.875C26.8016 17.2812 26.9448 16.7474 27.2312 16.2734C27.5125 15.7943 27.8927 15.4115 28.3719 15.125C28.851 14.8333 29.3719 14.6875 29.9344 14.6875C30.5177 14.6875 31.0411 14.8307 31.5047 15.1172C31.9734 15.4036 32.3484 15.7891 32.6297 16.2734C32.9161 16.7526 33.0594 17.2865 33.0594 17.875L33.075 22.9453C33.075 23.5286 32.9344 24.0625 32.6531 24.5469C32.3667 25.0365 31.9865 25.4271 31.5125 25.7188C31.0385 26.0104 30.5125 26.1562 29.9344 26.1562ZM29.9344 24.2266C30.2573 24.2266 30.5385 24.0964 30.7781 23.8359C31.0177 23.5703 31.1375 23.2734 31.1375 22.9453L31.1219 17.875C31.1219 17.5208 31.0099 17.2214 30.7859 16.9766C30.562 16.7318 30.2781 16.6094 29.9344 16.6094C29.6062 16.6094 29.325 16.7292 29.0906 16.9688C28.8562 17.2083 28.7391 17.5104 28.7391 17.875V22.9453C28.7391 23.2943 28.8562 23.5964 29.0906 23.8516C29.325 24.1016 29.6062 24.2266 29.9344 24.2266Z" fill="#DC2626"/>
<path d="M37.7 26H35.7625C35.7156 26 35.6896 25.974 35.6844 25.9219L33.7937 14.9297C33.7833 14.888 33.799 14.8672 33.8406 14.8672H35.6375C35.6792 14.8672 35.7052 14.888 35.7156 14.9297L36.7391 22.1562L37.7937 14.9297C37.8042 14.888 37.8354 14.8672 37.8875 14.8672H39.3328C39.3745 14.8672 39.4005 14.888 39.4109 14.9297L40.45 22.1562L41.4891 14.9297C41.4995 14.888 41.5255 14.8672 41.5672 14.8672H43.3484C43.4005 14.8672 43.4214 14.888 43.4109 14.9297L41.5047 25.9219C41.4995 25.9427 41.4839 25.9609 41.4578 25.9766L41.4266 26H39.4891C39.4578 26 39.4318 25.974 39.4109 25.9219L38.5906 20.1797L37.7781 25.9219C37.7729 25.974 37.7469 26 37.7 26Z" fill="#DC2626"/>
<path d="M45.8563 23.0547H44.7625C44.7156 23.0547 44.6896 23.0286 44.6844 22.9766L44.3484 19.2969V14.9453C44.3484 14.8932 44.3693 14.8672 44.4109 14.8672H46.2078C46.2599 14.8672 46.2859 14.8932 46.2859 14.9453L46.2703 19.2969L45.9344 22.9766C45.9292 23.0286 45.9031 23.0547 45.8563 23.0547ZM46.2078 26H44.4109C44.3693 26 44.3484 25.974 44.3484 25.9219V24.1797C44.3484 24.1328 44.3693 24.1094 44.4109 24.1094H46.2078C46.2495 24.1094 46.2703 24.1328 46.2703 24.1797V25.9219C46.2703 25.974 46.2495 26 46.2078 26Z" fill="#DC2626"/>
</svg>
