<svg width="36" height="36" viewBox="0 0 36 36" fill="none" xmlns="http://www.w3.org/2000/svg">
<path d="M33.832 13.5929L30.5373 29.1068H24.7638L26.2145 22.2094H22.6908L21.2277 29.1068H15.5L18.5304 14.8146H24.2581L23.2091 19.7639H26.7452L28.0522 13.5929H33.832Z" fill="#1E40AF"/>
<path fill-rule="evenodd" clip-rule="evenodd" d="M20.2784 33.5857L21.369 28.4428L15.6143 28.5698L14.1074 35.6857H16.1658C18.0348 35.6857 19.9496 35.1404 20.2784 33.5857V33.5857Z" fill="#1E40AF"/>
<path fill-rule="evenodd" clip-rule="evenodd" d="M28.6178 10.9226L27.5293 16.0634L33.334 15.9385L34.8409 8.82257H32.7825C30.9114 8.82257 28.9467 9.36579 28.6178 10.9226V10.9226Z" fill="#1E40AF"/>
<path d="M20.8378 14.8146L4.9076 30.7448H0.857422L4.58709 12.3712H7.89841C9.36988 12.3712 10.6748 13.5929 10.2794 15.4494L8.78712 22.4821L16.4546 14.8146H20.8378Z" fill="#DC2626"/>
<path fill-rule="evenodd" clip-rule="evenodd" d="M14.3408 13.0642L20.2538 7.15131L17.8082 3.82958H23.5755L27.378 0.0270691L26.5705 3.82958H31.9714L25.894 7.01186L24.6078 13.0642L21.7502 9.18264L14.3408 13.0642Z" fill="#DC2626"/>
</svg>
