<svg width="210" height="130" viewBox="0 0 210 130" fill="none" xmlns="http://www.w3.org/2000/svg">
<g clip-path="url(#clip0_134_343)">
<path fill-rule="evenodd" clip-rule="evenodd" d="M118.838 118.789C116.473 127.618 106.085 130 98.0723 130H89.5706C88.3132 130 87.2299 129.482 86.4406 128.5C85.6478 127.518 85.3676 126.348 85.6273 125.112L86.919 118.989C86.7379 118.999 86.5534 118.992 86.3654 118.975C65.9587 117.104 43.4539 111.787 25.6885 101.194C12.772 93.4917 0.00927734 81.2754 0.00927734 65.067C0.00927734 46.4455 16.7051 33.1754 31.8085 25.5895C53.6743 14.6055 80.7478 10.3079 105.002 10.3079C106.075 10.3079 107.148 10.3182 108.221 10.332C109.15 10.3491 109.967 10.6409 110.661 11.2004C111.358 10.6272 112.239 10.3079 113.206 10.3079H127.087L136.156 1.19802C137.437 -0.0891805 139.333 -0.367215 140.926 0.501214C142.522 1.36964 143.325 3.12023 142.945 4.90171L141.804 10.3079H151.385C152.906 10.3079 154.235 11.1249 154.925 12.4086C158.684 10.9635 162.98 10.4521 166.711 10.4521H175.213C176.47 10.4521 177.553 10.9704 178.343 11.9521C179.135 12.9304 179.416 14.1009 179.156 15.3366L177 25.5586C177.683 25.5243 178.363 25.6753 179.019 26.0117C193.839 33.6216 209.992 46.7648 209.992 65.067C209.992 81.6186 196.699 93.9997 183.451 101.702C165.105 112.367 141.941 117.564 120.977 119.201C120.205 119.263 119.48 119.122 118.838 118.789V118.789ZM121.602 105.777C127.469 105.149 133.521 104.146 139.508 102.705H133.589C132.335 102.705 131.252 102.19 130.459 101.208C129.67 100.23 129.386 99.0593 129.646 97.8236L134.618 74.0877H128.289L121.602 105.777ZM162.436 94.4666C163.967 93.6908 165.464 92.867 166.919 92.002C175.585 86.8532 184.992 78.6975 186.564 68.1082C186.711 67.099 186.786 66.083 186.786 65.067C186.786 55.7065 180.454 48.0108 173.419 42.5359L162.436 94.4666V94.4666ZM145.665 21.9373L138.551 25.6822L135.476 40.2052C135.435 40.394 135.383 40.5794 135.322 40.7579L132.137 55.8507H138.503L145.566 22.3733C145.597 22.2257 145.631 22.0815 145.665 21.9373V21.9373ZM123.564 35.3139L122.638 34.0541L120.239 35.3139H123.564V35.3139ZM101.011 36.5015L113.883 23.5712C113.524 23.6502 113.148 23.6845 112.762 23.6639C110.179 23.5369 107.589 23.4751 105.002 23.4751C95.202 23.4751 84.8038 24.395 74.6791 26.482C80.5427 29.1834 83.806 35.7189 82.3025 42.838L78.9606 58.6516L101.011 36.5015V36.5015ZM89.6287 106.158L97.2795 69.8897L65.8288 101.483C73.1585 103.559 80.7136 104.949 88.2516 105.763C88.7505 105.818 89.2084 105.948 89.6287 106.158V106.158ZM49.8335 34.5519C48.6034 35.132 47.3938 35.7395 46.2046 36.3711C35.663 41.9798 23.2146 51.8518 23.2146 65.067C23.2146 75.8245 31.4873 84.3715 40.1701 90.1622L49.8335 34.5519Z" fill="white"/>
<path d="M171.04 34.291L169.137 43.3013L168.983 44.0222L157.43 98.6577H133.589L139.582 70.0407H125.022L118.984 98.6577L115.065 117.241C113.705 123.694 105.798 125.953 98.0719 125.953H89.5702L95.328 98.6577L107.838 39.3642H131.494L127.161 59.8976H141.766L147.168 34.291H147.172L149.509 23.2108C150.869 16.7576 158.985 14.499 166.711 14.499H175.212L171.037 34.291H171.04V34.291ZM121.79 109.827C161.144 105.677 190.818 87.2136 190.818 65.067C190.818 55.3049 185.053 46.2602 175.236 38.8391L177.184 29.6159C194.987 38.7567 205.962 51.2682 205.962 65.067C205.962 90.3956 168.983 111.385 120.662 115.168L121.79 109.827V109.827Z" fill="#0B0FAB"/>
<path fill-rule="evenodd" clip-rule="evenodd" d="M105.002 14.3548C106.058 14.3548 107.11 14.3651 108.159 14.3823L112.584 19.1123L112.96 19.6203C110.339 19.4933 107.684 19.4281 105.002 19.4281C57.6036 19.4281 19.182 39.8619 19.182 65.0669C19.182 77.3416 28.2988 88.4836 43.1289 96.6873L54.8494 29.2211H68.5245C74.6035 29.2211 79.9888 34.2943 78.3588 41.9969L72.1944 71.1734L103.86 39.3642L119.798 23.3515L113.206 14.3548H128.754L139.005 4.06067L136.825 14.3582L151.385 14.3548L135 22.9773L131.535 39.3642L123.833 28.8538L103.86 39.3642H121.967L58.2733 103.346C67.1269 106.412 77.1116 108.633 87.8207 109.789L86.7306 114.945C39.6947 110.627 4.0376 89.939 4.0376 65.0669C4.0376 37.061 49.242 14.3548 105.002 14.3548V14.3548Z" fill="#DC0006"/>
</g>
<defs>
<clipPath id="clip0_134_343">
<rect width="210" height="130" fill="white"/>
</clipPath>
</defs>
</svg>
