<svg width="1004" height="1004" viewBox="0 0 1004 1004" fill="none" xmlns="http://www.w3.org/2000/svg">
<path d="M501.987 1003.97C779.227 1003.97 1003.97 779.227 1003.97 501.987C1003.97 224.747 779.227 0 501.987 0C224.747 0 0 224.747 0 501.987C0 779.227 224.747 1003.97 501.987 1003.97Z" fill="#1E40AF"/>
<path d="M501.987 930.122C738.44 930.122 930.122 738.439 930.122 501.987C930.122 265.535 738.44 73.8523 501.987 73.8523C265.535 73.8523 73.8525 265.535 73.8525 501.987C73.8525 738.439 265.535 930.122 501.987 930.122Z" fill="white" stroke="#DC2626" stroke-width="12.5236" stroke-miterlimit="2.61313"/>
<path d="M501.987 909.495C727.047 909.495 909.495 727.047 909.495 501.987C909.495 276.927 727.047 94.4795 501.987 94.4795C276.927 94.4795 94.4795 276.927 94.4795 501.987C94.4795 727.047 276.927 909.495 501.987 909.495Z" fill="white" stroke="#DC2626" stroke-width="8.34906" stroke-miterlimit="2.61313"/>
<path d="M159.492 642.202L154.274 625.934L182.267 616.909L174.778 593.642L146.784 602.667L141.504 586.398L210.937 564.052L216.216 580.321L188.959 589.1L196.449 612.305L223.706 603.526L228.924 619.795L159.492 642.202ZM187.731 695.796L179.014 680.264L242.614 644.535L251.331 660.067L187.731 695.796V695.796ZM254.831 776.892L232.3 753.073C230.336 750.924 228.617 748.96 227.266 747.118C225.854 745.276 224.749 743.557 224.013 742.022C222.539 739.014 221.68 735.638 221.312 731.954C221.066 727.105 221.987 722.378 224.197 717.835C226.346 713.23 229.845 708.688 234.633 704.206C243.903 695.366 252.743 690.946 261.092 690.762C269.319 690.577 277.422 694.629 285.341 703.04L307.872 726.859L297.251 736.866L274.721 713.046C271.16 709.24 267.293 707.644 263.118 708.196C258.882 708.81 253.91 711.818 248.016 717.405C242.675 722.378 239.667 726.859 238.931 730.849C238.194 734.84 239.729 738.769 243.351 742.636L253.848 753.748L264.1 744.048L250.656 729.806L261.522 719.615L286.999 746.565L254.831 776.892V776.892ZM337.032 832.45L322.176 823.978L336.786 798.379L315.545 786.285L300.996 811.884L286.14 803.412L322.237 740.058L337.093 748.53L322.912 773.393L344.153 785.487L358.334 760.624L373.129 769.095L337.032 832.45V832.45ZM473.072 870.757L452.261 867.258L450.481 864.68C447.841 865.539 444.956 865.969 441.886 865.969C438.817 866.092 435.195 865.846 431.143 865.11C418.926 863.084 410.516 858.541 405.85 851.481C401.062 844.421 399.773 834.537 401.86 821.83C404.009 809.122 408.49 800.22 415.243 795.125C421.996 790.091 431.45 788.556 443.605 790.582C455.638 792.608 464.048 797.151 468.898 804.211C473.686 811.393 474.976 821.216 472.888 833.739C472.09 838.712 470.862 843.193 469.266 847.061C467.609 851.051 465.583 854.366 463.25 856.883L473.072 870.757V870.757ZM454.778 830.67C456.067 822.75 455.638 816.734 453.428 812.498C451.218 808.385 447.166 805.807 441.211 804.763C435.44 803.842 430.775 804.947 427.275 808.262C423.776 811.455 421.321 817.041 420.031 824.838C418.681 832.818 419.111 838.896 421.321 843.009C423.592 847.184 427.644 849.762 433.537 850.744C439.308 851.727 443.974 850.56 447.534 847.306C451.033 844.114 453.428 838.589 454.778 830.67V830.67ZM565.772 838.343C565.956 840.799 566.079 843.009 566.017 844.912C565.956 846.815 565.833 848.657 565.649 850.499C565.219 853.875 564.237 856.515 562.825 858.357C560.246 861.979 556.809 864.803 552.511 866.767C548.275 868.793 542.934 869.959 536.55 870.451C530.165 870.942 524.702 870.573 520.281 869.284C515.8 867.995 511.871 865.724 508.556 862.47C506.96 860.567 505.732 858.173 504.934 855.287C504.013 852.402 503.399 848.35 502.969 843.071L499.654 799.422L516.598 798.133L519.913 841.413C520.343 847.552 521.755 851.788 524.026 854.059C526.359 856.269 530.165 857.129 535.506 856.761C540.847 856.331 544.531 854.857 546.556 852.34C548.46 849.762 549.196 845.403 548.705 839.264L545.451 795.923L562.457 794.634L565.772 838.343V838.343ZM673.143 830.854L655.278 837.975L643.123 824.838L616.664 835.397L617.155 853.261L600.027 860.137L601.255 781.067L617.401 774.559L673.143 830.854V830.854ZM632.134 812.989L615.805 795.555L616.357 819.313L632.134 812.989ZM740.549 784.627L724.465 796.107C719.124 799.913 714.704 802.308 711.266 803.29C707.828 804.333 704.206 804.395 700.523 803.535C698.681 803.106 697.024 802.614 695.612 802.001C694.2 801.448 692.726 800.589 691.253 799.484C688.552 797.519 685.605 794.204 682.29 789.6L657.243 754.485L671.301 744.478L696.041 779.163C697.085 780.575 698.006 781.865 698.927 783.031C699.786 784.259 700.584 785.18 701.26 785.794C702.487 786.776 703.592 787.39 704.513 787.574C705.495 787.942 706.355 788.065 707.153 788.065C708.012 788.126 709.056 788.004 710.161 787.635C712.31 786.96 714.704 785.671 717.282 783.829L732.323 773.086L740.549 784.627V784.627ZM778.488 745.829L766.21 758.782L713.231 708.688L725.447 695.673L778.488 745.829ZM783.952 635.756L772.718 655.524L823.119 684.254L814.402 699.479L764 670.81L752.827 690.332L739.935 683.026L771.06 628.389L783.952 635.756V635.756ZM795.309 553.555L826.741 591.678L857.62 600.641L852.832 617.094L822.075 608.131L775.05 623.355L780.514 604.509L809.92 595.853L789.723 572.708L795.309 553.555V553.555Z" fill="#DC2626"/>
<path d="M177.111 513.467C191.961 513.467 203.999 501.429 203.999 486.578C203.999 471.728 191.961 459.689 177.111 459.689C162.26 459.689 150.222 471.728 150.222 486.578C150.222 501.429 162.26 513.467 177.111 513.467Z" fill="#1E40AF"/>
<path d="M822.444 513.467C837.294 513.467 849.333 501.429 849.333 486.578C849.333 471.728 837.294 459.689 822.444 459.689C807.593 459.689 795.555 471.728 795.555 486.578C795.555 501.429 807.593 513.467 822.444 513.467Z" fill="#1E40AF"/>
<path d="M228.433 335.251C233.774 333.655 239.851 331.691 246.727 329.358L264.285 323.465L282.579 317.019L260.171 361.772L240.342 366.192C236.229 367.113 232.362 368.034 228.678 368.893C229.047 370.428 229.722 372.577 230.643 375.523C231.379 377.795 232.362 380.742 233.589 384.302L239.79 402.474L227.512 426.968C225.67 419.847 223.706 412.726 221.618 405.42C219.961 399.65 218.181 394.002 216.339 388.354L211.182 372.945C207.192 373.927 202.096 375.523 195.896 377.672C190.985 379.452 185.521 381.54 179.443 383.995L160.781 392.037L184.539 344.583L203.815 340.838L210.936 339.18L206.762 326.902C205.718 323.833 204.675 320.948 203.631 318.308C201.974 313.949 201.053 311.678 200.991 311.678L213.945 285.832C213.883 285.832 214.19 287.306 214.804 290.314L215.97 295.471C216.462 297.681 217.014 299.891 217.505 302.101C218.917 307.626 220.452 312.967 222.048 318.062C224.074 324.324 226.161 330.095 228.433 335.251V335.251ZM287.858 191.721C287.981 191.844 290.068 192.458 294.243 193.563L300.627 195.159C303.206 195.773 305.6 196.264 307.81 196.51L296.269 204.859L284.789 199.027L286.078 212.226L275.826 219.654C276.256 217.751 276.563 215.541 276.808 213.024C276.992 210.936 277.115 208.726 277.238 206.455C277.299 201.973 277.299 199.641 277.176 199.518L287.858 191.721ZM341.329 276.378C325.675 287.674 311.309 293.875 298.172 295.102C284.727 296.269 274.353 291.91 267.231 282.088C259.496 271.344 258.33 259.619 263.793 246.85C269.012 234.633 279.632 222.723 295.655 211.121C310.573 200.316 324.57 194.361 337.584 193.317C351.213 192.212 361.649 196.633 368.893 206.639C376.015 216.523 377.304 227.573 372.7 239.79C367.911 252.436 357.475 264.653 341.329 276.378V276.378ZM298.233 259.803C303.758 267.415 309.775 271.651 316.405 272.449C322.114 273.125 328.069 271.222 334.331 266.679C340.347 262.32 343.846 257.163 344.951 251.086C346.118 244.455 344.153 237.518 338.935 230.336C333.655 223.03 327.639 218.856 320.886 217.812C314.747 216.891 308.731 218.61 302.715 222.969C296.514 227.45 292.892 232.607 291.849 238.562C290.621 245.192 292.77 252.252 298.233 259.803V259.803ZM307.38 163.973L306.644 166.736C306.091 169.068 305.6 171.34 305.048 173.611L303.206 182.083C302.653 185.275 302.224 187.854 301.978 189.88L293.445 190.862C293.629 189.02 293.752 186.565 293.813 183.618C293.813 181.224 293.813 178.522 293.752 175.514C293.629 173.427 293.568 171.217 293.445 169.007L293.261 166.306L307.38 163.973V163.973ZM463.434 149.117C476.326 146.661 486.21 147.029 493.27 150.099C499.777 152.984 503.767 158.202 505.179 165.815C506.346 171.954 505.486 177.54 502.54 182.39C499.838 186.933 495.48 190.801 489.464 193.931C483.816 196.94 477.001 199.211 468.898 200.93C461.347 202.465 452.998 203.385 443.912 203.692L441.149 195.957L446.49 195.589C450.665 195.098 454.471 194.3 457.909 193.195C462.636 191.599 466.197 189.45 468.591 186.687C471.538 183.311 472.52 179.136 471.599 174.164C470.985 171.033 469.266 168.761 466.319 167.349C463.802 166.06 460.487 165.446 456.374 165.446C452.998 165.446 449.069 165.815 444.587 166.613L438.939 167.718L434.09 168.946L435.809 182.267C436.729 188.652 437.65 194.607 438.694 200.07C439.922 206.946 441.149 212.717 442.439 217.321C443.912 222.846 445.447 226.714 446.982 228.924L409.349 236.045C409.411 231.379 408.981 225.67 408.183 218.856C407.385 212.594 406.341 205.78 404.929 198.474C401.983 182.636 398.79 170.542 395.475 162.009L463.434 149.117V149.117ZM624.89 169.682C620.102 176.558 614.822 186.933 609.113 200.684L616.541 191.599C616.541 191.537 617.523 191.66 619.488 192.028C620.593 192.212 621.698 192.458 622.803 192.704L626.916 193.809C630.354 194.852 633.423 196.141 636.186 197.676C639.747 199.518 642.632 201.667 644.965 204.184C647.113 198.474 648.771 193.809 649.876 190.309C651.288 185.828 651.963 182.636 652.025 180.671L687.385 195.036C682.474 202.158 676.826 213.515 670.442 228.924C667.434 236.168 664.917 242.859 662.952 248.998C660.803 255.69 659.514 260.908 659.023 264.837L623.662 250.472C625.381 247.832 627.284 244.394 629.372 240.097C631.091 236.598 632.932 232.73 634.897 228.433C636.247 225.302 637.598 222.171 638.949 218.979L640.545 214.988C632.318 207.499 621.33 203.877 607.701 204.184C606.166 207.928 604.816 211.305 603.649 214.313C602.299 217.935 601.132 221.189 600.15 224.074C597.817 231.011 596.651 236.106 596.528 239.483L561.167 225.118C563.746 221.189 566.57 216.032 569.639 209.709C572.463 203.754 575.226 197.308 578.05 190.371C583.882 175.699 587.749 163.973 589.529 155.317L624.89 169.682V169.682ZM722.746 274.598C715.502 280.614 711.634 286.937 711.327 293.568C711.021 299.338 713.353 305.17 718.265 311.125C722.992 316.834 728.394 319.965 734.533 320.702C741.224 321.377 748.039 318.922 754.853 313.274C761.79 307.503 765.535 301.241 766.087 294.488C766.64 288.288 764.491 282.333 759.764 276.624C754.914 270.792 749.451 267.538 743.496 266.863C736.804 266.065 729.867 268.705 722.746 274.598V274.598ZM790.644 304.311C791.073 306.03 791.38 307.749 791.687 309.468C793.713 322.973 789.968 333.717 780.453 341.575C771.121 349.371 760.194 351.336 747.67 347.591C734.717 343.723 721.825 334.085 709.056 318.738C696.778 303.881 689.595 289.946 687.508 276.931C685.421 263.548 689.043 252.989 698.436 245.192C708.565 236.782 720.229 234.817 733.305 239.421C745.89 243.78 758.475 253.603 771.121 268.827C779.839 279.325 785.855 289.454 789.17 299.277C790.521 299.461 791.871 299.461 793.283 299.4L795.555 299.093C796.169 298.97 796.476 298.909 796.537 298.909C795.186 296.944 794.388 294.611 794.081 292.033C793.836 289.332 794.266 287.49 795.432 286.508C796.844 285.341 798.931 285.219 801.448 286.139C804.027 287.122 806.482 289.025 808.754 291.849C811.025 294.55 812.437 297.251 813.051 299.891C813.542 302.653 813.051 304.618 811.516 305.907C810.902 306.398 810.288 306.828 809.613 307.196C808.692 307.565 807.71 307.871 806.605 308.117C803.842 308.547 800.466 308.178 796.598 306.951C794.695 306.459 792.731 305.539 790.644 304.311V304.311ZM838.098 391.116C828.521 392.713 815.261 396.887 798.44 403.64C791.749 406.28 785.855 408.858 780.76 411.437C775.173 414.261 770.937 416.778 768.113 418.988L753.932 383.443C758.352 382.583 763.816 381.049 770.323 378.961C776.34 376.997 782.786 374.664 789.538 371.963C804.702 365.885 816.182 360.421 823.917 355.51L838.098 391.116V391.116Z" fill="#DC2626"/>
<path d="M501.987 751.968C640.047 751.968 751.968 640.047 751.968 501.987C751.968 363.926 640.047 252.006 501.987 252.006C363.926 252.006 252.006 363.926 252.006 501.987C252.006 640.047 363.926 751.968 501.987 751.968Z" fill="#1E40AF" stroke="#DC2626" stroke-width="8.84018" stroke-miterlimit="2.61313"/>
<path fill-rule="evenodd" clip-rule="evenodd" d="M373.989 482.526L391.117 518.194L430.283 523.412L401.676 550.669L408.797 589.529L373.989 570.744L339.242 589.529L346.363 550.669L317.755 523.412L356.922 518.194L373.989 482.526Z" fill="#DC2626"/>
<path fill-rule="evenodd" clip-rule="evenodd" d="M381.478 478.966L396.642 510.52L431.327 515.186C435.87 515.738 439.124 519.913 438.51 524.456C438.264 526.42 437.343 528.139 435.993 529.428L410.639 553.616L416.962 588.056C417.76 592.537 414.813 596.896 410.27 597.694C408.367 598.063 406.464 597.694 404.868 596.835L373.989 580.198L343.171 596.835C339.119 599.045 334.085 597.51 331.936 593.458C330.954 591.617 330.709 589.529 331.138 587.688L337.4 553.616L312.046 529.428C308.731 526.298 308.608 521.018 311.739 517.703C313.151 516.168 315.054 515.309 316.957 515.125L351.397 510.52L366.499 478.966C368.525 474.853 373.436 473.072 377.611 475.037C379.391 475.896 380.742 477.308 381.478 478.966V478.966ZM373.989 482.526L391.117 518.194L430.283 523.412L401.676 550.669L408.797 589.529L373.989 570.744L339.242 589.529L346.363 550.669L317.755 523.412L356.922 518.194L373.989 482.526V482.526Z" fill="white"/>
<path fill-rule="evenodd" clip-rule="evenodd" d="M504.504 482.526L521.57 518.194L560.737 523.412L532.129 550.669L539.251 589.529L504.504 570.744L469.757 589.529L476.878 550.669L448.271 523.412L487.437 518.194L504.504 482.526Z" fill="#DC2626"/>
<path fill-rule="evenodd" clip-rule="evenodd" d="M511.994 478.966L527.096 510.52L561.842 515.186C566.385 515.738 569.578 519.913 568.964 524.456C568.718 526.42 567.797 528.139 566.447 529.428L541.093 553.616L547.416 588.056C548.275 592.537 545.267 596.896 540.786 597.694C538.821 598.063 536.918 597.694 535.322 596.835L504.504 580.198L473.686 596.835C469.635 599.045 464.6 597.51 462.39 593.458C461.408 591.617 461.163 589.529 461.654 587.688L467.854 553.616L442.5 529.428C439.185 526.298 439.062 521.018 442.254 517.703C443.666 516.168 445.508 515.309 447.473 515.125L481.851 510.52L497.014 478.966C498.979 474.853 503.952 473.072 508.065 475.037C509.845 475.896 511.196 477.308 511.994 478.966V478.966ZM504.504 482.526L521.571 518.194L560.737 523.412L532.13 550.669L539.251 589.529L504.504 570.744L469.757 589.529L476.879 550.669L448.271 523.412L487.438 518.194L504.504 482.526Z" fill="white"/>
<path fill-rule="evenodd" clip-rule="evenodd" d="M634.958 482.526L652.086 518.194L691.253 523.412L662.645 550.669L669.766 589.529L634.958 570.744L600.211 589.529L607.332 550.669L578.725 523.412L617.891 518.194L634.958 482.526Z" fill="#DC2626"/>
<path fill-rule="evenodd" clip-rule="evenodd" d="M642.448 478.966L657.611 510.52L692.297 515.186C696.84 515.738 700.032 519.913 699.479 524.456C699.234 526.42 698.313 528.139 696.962 529.428L671.608 553.616L677.931 588.056C678.729 592.537 675.721 596.896 671.24 597.694C669.337 598.063 667.434 597.694 665.776 596.835L634.958 580.198L604.14 596.835C600.089 599.045 595.055 597.51 592.906 593.458C591.862 591.617 591.678 589.529 592.108 587.688L598.37 553.616L573.016 529.428C569.701 526.298 569.516 521.018 572.709 517.703C574.121 516.168 576.024 515.309 577.927 515.125L612.367 510.52L627.469 478.966C629.495 474.853 634.406 473.072 638.58 475.037C640.361 475.896 641.65 477.308 642.448 478.966V478.966ZM634.958 482.526L652.086 518.194L691.253 523.412L662.645 550.669L669.766 589.529L634.958 570.744L600.212 589.529L607.333 550.669L578.725 523.412L617.892 518.194L634.958 482.526Z" fill="white"/>
<path fill-rule="evenodd" clip-rule="evenodd" d="M439.247 575.348L456.313 611.016L495.48 616.234L466.872 643.491L473.993 682.351L439.247 663.566L404.5 682.351L411.621 643.491L383.013 616.234L422.18 611.016L439.247 575.348Z" fill="#DC2626"/>
<path fill-rule="evenodd" clip-rule="evenodd" d="M446.736 571.788L461.9 603.342L496.585 608.008C501.128 608.56 504.32 612.735 503.768 617.278C503.461 619.242 502.54 620.961 501.251 622.25L475.897 646.438L482.22 680.878C483.018 685.359 480.01 689.718 475.528 690.516C473.564 690.884 471.661 690.516 470.064 689.657L439.247 673.02L408.429 689.657C404.377 691.867 399.343 690.332 397.194 686.28C396.151 684.438 395.967 682.413 396.396 680.509L402.658 646.438L377.304 622.25C373.928 619.119 373.805 613.84 376.997 610.525C378.409 608.99 380.312 608.131 382.215 607.946L416.655 603.342L431.757 571.788C433.721 567.674 438.694 565.894 442.869 567.859C444.588 568.718 445.938 570.13 446.736 571.788V571.788ZM439.247 575.348L456.313 611.016L495.48 616.234L466.872 643.491L473.993 682.351L439.247 663.566L404.5 682.351L411.621 643.491L383.013 616.234L422.18 611.016L439.247 575.348Z" fill="white"/>
<path fill-rule="evenodd" clip-rule="evenodd" d="M569.762 575.348L586.828 611.016L625.995 616.234L597.387 643.491L604.508 682.351L569.762 663.566L534.953 682.351L542.075 643.491L513.467 616.234L552.634 611.016L569.762 575.348Z" fill="#DC2626"/>
<path fill-rule="evenodd" clip-rule="evenodd" d="M577.252 571.788L592.354 603.342L627.039 608.008C631.582 608.56 634.836 612.735 634.222 617.278C633.976 619.242 633.055 620.961 631.705 622.25L606.351 646.438L612.674 680.878C613.472 685.359 610.525 689.718 605.982 690.516C604.079 690.884 602.176 690.516 600.58 689.657L569.762 673.02L538.883 689.657C534.892 691.867 529.797 690.332 527.648 686.28C526.666 684.438 526.421 682.413 526.85 680.509L533.112 646.438L507.758 622.25C504.443 619.119 504.32 613.84 507.451 610.525C508.924 608.99 510.766 608.131 512.669 607.946L547.109 603.342L562.272 571.788C564.237 567.674 569.209 565.894 573.323 567.859C575.103 568.718 576.454 570.13 577.252 571.788V571.788ZM569.762 575.348L586.828 611.016L625.995 616.234L597.388 643.491L604.509 682.351L569.762 663.566L534.954 682.351L542.075 643.491L513.467 616.234L552.634 611.016L569.762 575.348Z" fill="white"/>
<g clip-path="url(#clip0_157_550)">
<path fill-rule="evenodd" clip-rule="evenodd" d="M548.623 420.086H538.742C537.209 420.086 535.931 419.49 534.909 418.298C533.972 417.105 533.632 415.657 533.972 414.209L540.446 383.459H531.672L522.984 424.686C522.984 424.601 522.984 424.601 523.069 424.601C531.417 423.749 540.105 422.301 548.623 420.086ZM509.27 303.475C510.122 302.708 511.229 302.197 512.507 302.197H530.48L542.235 290.442C543.853 288.909 546.153 288.568 548.112 289.59C549.986 290.698 551.008 292.827 550.497 294.957L548.964 302.197H561.656C563.615 302.197 565.319 303.305 566.085 305.008C570.94 303.049 576.563 302.453 581.418 302.453H592.321C593.854 302.453 595.217 303.049 596.154 304.242C597.176 305.434 597.517 306.882 597.176 308.33L594.28 321.789C595.302 321.703 596.239 321.874 597.091 322.3C616.086 332.01 636.87 348.79 636.87 372.13C636.87 393.254 619.834 409.013 602.798 418.894C579.203 432.523 549.475 439.167 522.473 441.296C521.451 441.382 520.429 441.126 519.577 440.615C516.766 452.029 503.308 455.096 493.001 455.096H482.098C480.565 455.096 479.202 454.499 478.265 453.307C477.328 452.114 476.987 450.666 477.243 449.218L479.031 440.955C478.69 441.041 478.35 441.041 478.009 440.955C451.774 438.57 422.812 431.756 399.984 418.212C383.374 408.417 367.02 392.829 367.02 372.13C367.02 348.365 388.485 331.499 407.821 321.789C435.93 307.734 470.769 302.197 501.945 302.197C503.308 302.197 504.67 302.197 506.118 302.283C507.311 302.283 508.333 302.708 509.27 303.475V303.475ZM554.756 316.337L544.875 321.448L540.957 340.187C540.872 340.443 540.787 340.699 540.701 340.954L536.528 360.631H545.301L554.416 317.444C554.501 317.104 554.586 316.678 554.756 316.337ZM526.391 334.31L524.773 332.01L520.429 334.31H523.751H526.391ZM492.49 377.496L451.007 418.979C460.547 421.705 470.428 423.494 480.309 424.601C481.075 424.686 481.757 424.857 482.353 425.197L492.49 377.496ZM497.004 335.758L514.466 318.296C513.7 318.637 512.848 318.807 511.911 318.807C508.589 318.637 505.267 318.552 501.945 318.552C488.997 318.552 475.283 319.83 461.995 322.555C469.917 325.792 474.432 334.31 472.472 343.595L467.958 364.804L497.004 335.758V335.758ZM431.245 332.607C429.542 333.373 427.753 334.225 426.134 335.162C412.421 342.402 396.321 355.094 396.321 372.13C396.321 386.184 407.31 397.258 418.639 404.754L431.245 332.607ZM575.54 410.376C577.67 409.269 579.799 408.161 581.844 406.883C593.087 400.239 605.183 389.762 607.227 376.048C607.397 374.771 607.568 373.493 607.568 372.13C607.568 359.864 599.135 349.898 589.851 342.743L575.54 410.376V410.376Z" fill="white"/>
<path fill-rule="evenodd" clip-rule="evenodd" d="M523.58 429.542C574.262 424.175 612.423 400.58 612.423 372.13C612.423 359.608 605.012 348.024 592.406 338.569L594.876 326.729C617.789 338.399 631.929 354.497 631.929 372.13C631.929 404.583 584.314 431.501 522.132 436.356L523.58 429.542ZM586.954 332.692L584.739 343.169L584.313 345.213L569.492 415.231H538.742L546.494 378.518H527.754L520.684 411.653L519.917 415.231L514.892 438.996C513.188 447.344 502.967 450.155 493.001 450.155H482.098L489.508 415.231L505.607 339.165H536.102L530.48 365.486H549.305L556.204 332.692L559.271 318.466C560.974 310.204 571.452 307.308 581.418 307.308H592.32L586.954 332.692V332.692Z" fill="#1E40AF"/>
<path fill-rule="evenodd" clip-rule="evenodd" d="M501.945 307.138C503.308 307.138 504.671 307.138 506.033 307.138L511.74 313.271L512.166 313.867C508.844 313.697 505.437 313.611 501.945 313.611C440.871 313.611 391.466 339.847 391.466 372.13C391.466 387.888 403.136 402.198 422.301 412.676L437.378 326.218H455.01C462.762 326.218 469.747 332.692 467.617 342.573L459.696 379.967L500.497 339.165L521.025 318.637L512.507 307.138H532.524L545.727 293.935L542.916 307.138H561.656L540.617 318.211L536.102 339.165L526.221 325.707L500.497 339.165H523.751L441.808 421.194C453.137 425.112 465.999 428.008 479.798 429.456L478.435 436.1C417.872 430.563 371.96 404.072 371.96 372.13C371.96 336.269 430.138 307.138 501.945 307.138V307.138Z" fill="#DC2626"/>
</g>
<defs>
<clipPath id="clip0_157_550">
<rect width="269.85" height="166.101" fill="white" transform="translate(367.02 288.994)"/>
</clipPath>
</defs>
</svg>
