<svg width="1005" height="1004" viewBox="0 0 1005 1004" fill="none" xmlns="http://www.w3.org/2000/svg">
<path d="M502.974 1004C780.221 1004 1004.97 779.247 1004.97 502C1004.97 224.753 780.221 0 502.974 0C225.727 0 0.974121 224.753 0.974121 502C0.974121 779.247 225.727 1004 502.974 1004Z" fill="#DC2626"/>
<path d="M502.974 930.166C739.444 930.166 931.141 738.47 931.141 502C931.141 265.53 739.444 73.8335 502.974 73.8335C266.505 73.8335 74.8081 265.53 74.8081 502C74.8081 738.47 266.505 930.166 502.974 930.166Z" fill="white" stroke="#1E40AF" stroke-width="12.5002" stroke-miterlimit="2.61313"/>
<path fill-rule="evenodd" clip-rule="evenodd" d="M502.974 102.892C723.384 102.892 902.063 281.59 902.063 502C902.063 722.41 723.384 901.088 502.974 901.088C282.564 901.088 103.867 722.41 103.867 502C103.867 281.59 282.564 102.892 502.974 102.892Z" fill="white" stroke="#1E40AF" stroke-width="8.8631" stroke-miterlimit="2.61313"/>
<path d="M160.491 642.221L155.246 625.969L183.271 616.933L175.786 593.694L147.761 602.729L142.516 586.439L211.947 564.08L217.192 580.351L189.952 589.119L197.437 612.358L224.677 603.591L229.922 619.843L160.491 642.221V642.221ZM188.727 695.84L179.998 680.296L243.59 644.556L252.319 660.1L188.727 695.84V695.84ZM255.841 776.948L233.329 753.096C231.3 750.971 229.635 748.999 228.276 747.181C226.84 745.305 225.749 743.582 224.964 742.05C223.547 739.026 222.686 735.695 222.322 731.981C222.054 727.138 222.992 722.448 225.194 717.873C227.357 713.26 230.841 708.704 235.588 704.224C244.911 695.438 253.716 690.958 262.063 690.786C270.332 690.594 278.43 694.672 286.336 703.056L308.848 726.927L298.243 736.939L275.731 713.087C272.17 709.316 268.303 707.708 264.092 708.263C259.9 708.838 254.884 711.881 248.988 717.433C243.666 722.448 240.642 726.947 239.934 730.909C239.206 734.872 240.699 738.796 244.356 742.682L254.846 753.804L265.126 744.099L251.687 729.856L262.503 719.653L287.963 746.625L255.841 776.948V776.948ZM338.021 832.5L323.166 824.02L337.772 798.445L316.562 786.347L301.956 811.941L287.101 803.46L323.243 740.079L338.098 748.559L323.932 773.425L345.142 785.524L359.308 760.657L374.163 769.118L338.021 832.5ZM474.107 870.785L453.261 867.301L451.461 864.755C448.839 865.598 445.986 866.019 442.924 866.019C439.803 866.153 436.204 865.866 432.127 865.196C419.952 863.147 411.529 858.611 406.82 851.547C402.073 844.502 400.752 834.625 402.896 821.876C405.021 809.184 409.481 800.302 416.258 795.21C422.996 790.137 432.452 788.605 444.608 790.635C456.649 792.664 465.072 797.22 469.896 804.283C474.662 811.462 476.021 821.282 473.916 833.782C473.093 838.779 471.867 843.239 470.24 847.125C468.594 851.145 466.603 854.399 464.249 856.907L474.107 870.785V870.785ZM455.768 830.739C457.089 822.833 456.649 816.784 454.467 812.534C452.246 808.418 448.169 805.834 442.234 804.839C436.434 803.881 431.802 805.03 428.279 808.284C424.757 811.539 422.345 817.071 421.043 824.919C419.703 832.883 420.144 838.932 422.345 843.086C424.566 847.221 428.624 849.805 434.539 850.781C440.32 851.757 444.972 850.609 448.532 847.336C452.036 844.177 454.448 838.626 455.768 830.739V830.739ZM566.816 838.396C566.988 840.846 567.064 843.048 567.007 844.962C566.969 846.876 566.835 848.733 566.662 850.552C566.241 853.94 565.284 856.562 563.81 858.4C561.226 862.056 557.799 864.889 553.531 866.842C549.281 868.814 543.94 870.039 537.546 870.537C531.172 871.015 525.735 870.613 521.313 869.369C516.796 868.067 512.89 865.789 509.579 862.516C507.971 860.621 506.746 858.228 505.942 855.337C505.042 852.485 504.391 848.407 504.008 843.162L500.696 799.479L517.619 798.196L520.911 841.478C521.371 847.623 522.749 851.834 525.008 854.093C527.362 856.313 531.191 857.213 536.513 856.811C541.853 856.39 545.51 854.935 547.539 852.389C549.472 849.805 550.2 845.44 549.74 839.296L546.467 796.014L563.504 794.712L566.816 838.396V838.396ZM674.13 830.93L656.327 838.051L644.152 824.881L617.678 835.467L618.137 853.327L601.043 860.161L602.287 781.102L618.424 774.631L674.13 830.93ZM633.145 813.032L616.836 795.631L617.391 819.349L633.145 813.032V813.032ZM741.57 784.681L725.471 796.148C720.149 799.957 715.746 802.35 712.301 803.365C708.836 804.379 705.256 804.437 701.542 803.556C699.705 803.154 698.039 802.656 696.623 802.044C695.225 801.489 693.77 800.646 692.277 799.574C689.597 797.545 686.63 794.253 683.338 789.639L658.28 754.531L672.311 744.52L697.082 779.226C698.078 780.623 699.035 781.906 699.934 783.073C700.834 784.318 701.6 785.236 702.27 785.849C703.533 786.806 704.624 787.419 705.543 787.648C706.5 787.974 707.362 788.127 708.147 788.127C709.027 788.165 710.061 788.031 711.209 787.668C713.315 787.017 715.708 785.734 718.331 783.877L733.339 773.157L741.57 784.681V784.681ZM779.511 745.86L767.26 758.819L714.234 708.704L726.485 695.744L779.511 745.86ZM785.005 635.808L773.768 655.544L824.152 684.277L815.442 699.553L765.039 670.839L753.879 690.403L740.977 683.052L772.103 628.457L785.005 635.808V635.808ZM796.357 553.571L827.77 591.722L858.628 600.7L853.842 617.125L823.08 608.185L776.046 623.384L781.54 604.529L810.943 595.895L790.786 572.752L796.357 553.571V553.571Z" fill="#1E40AF"/>
<path d="M178.083 531.537C192.948 531.537 204.998 519.487 204.998 504.622C204.998 489.758 192.948 477.708 178.083 477.708C163.219 477.708 151.168 489.758 151.168 504.622C151.168 519.487 163.219 531.537 178.083 531.537Z" fill="#DC2626"/>
<path d="M823.481 531.537C838.346 531.537 850.396 519.487 850.396 504.622C850.396 489.758 838.346 477.708 823.481 477.708C808.617 477.708 796.566 489.758 796.566 504.622C796.566 519.487 808.617 531.537 823.481 531.537Z" fill="#DC2626"/>
<path d="M502.974 752.024C641.059 752.024 752.998 640.084 752.998 502C752.998 363.916 641.059 251.976 502.974 251.976C364.89 251.976 252.951 363.916 252.951 502C252.951 640.084 364.89 752.024 502.974 752.024Z" fill="#DC2626" stroke="#1E40AF" stroke-width="8.3271" stroke-miterlimit="2.61313"/>
<path fill-rule="evenodd" clip-rule="evenodd" d="M375.024 482.57L392.099 518.214L431.265 523.44L402.666 550.699L409.787 589.578L375.024 570.78L340.241 589.578L347.382 550.699L318.763 523.44L357.929 518.214L375.024 482.57Z" fill="white"/>
<path fill-rule="evenodd" clip-rule="evenodd" d="M382.508 478.99L397.65 510.576L432.337 515.208C436.893 515.802 440.109 519.975 439.515 524.512C439.247 526.484 438.329 528.206 436.989 529.47H437.008L411.644 553.628L417.961 588.085C418.784 592.584 415.798 596.929 411.28 597.752C409.346 598.097 407.451 597.752 405.843 596.891V596.91L375.023 580.236L344.184 596.91C340.145 599.073 335.092 597.561 332.929 593.522C331.933 591.665 331.703 589.597 332.144 587.702L338.403 553.628L313.039 529.47C309.708 526.311 309.574 521.047 312.733 517.716C314.169 516.204 316.045 515.362 317.978 515.17L352.397 510.576L367.519 478.99C369.51 474.856 374.468 473.113 378.603 475.085C380.383 475.947 381.723 477.344 382.508 478.99V478.99ZM375.023 482.57L392.099 518.214L431.265 523.44L402.666 550.699L409.787 589.578L375.023 570.78L340.241 589.578L347.381 550.699L318.763 523.44L357.929 518.214L375.023 482.57V482.57Z" fill="#1E40AF"/>
<path fill-rule="evenodd" clip-rule="evenodd" d="M505.501 482.57L522.596 518.214L561.762 523.44L533.143 550.699L540.265 589.578L505.501 570.78L470.738 589.578L477.859 550.699L449.26 523.44L488.426 518.214L505.501 482.57Z" fill="white"/>
<path fill-rule="evenodd" clip-rule="evenodd" d="M512.985 478.99L528.127 510.576L562.833 515.208C567.389 515.802 570.586 519.975 569.992 524.512C569.743 526.484 568.824 528.206 567.484 529.47L542.12 553.628L548.437 588.085C549.26 592.584 546.274 596.929 541.776 597.752C539.842 598.097 537.947 597.752 536.339 596.891V596.91L505.5 580.236L474.68 596.91C470.622 599.073 465.587 597.561 463.405 593.522C462.41 591.665 462.199 589.597 462.639 587.702L468.88 553.628L443.516 529.47C440.204 526.311 440.07 521.047 443.229 517.716C444.664 516.204 446.54 515.362 448.455 515.17L482.873 510.576L498.015 478.99C499.987 474.856 504.945 473.113 509.08 475.085C510.86 475.947 512.2 477.344 512.985 478.99V478.99ZM505.5 482.57L522.595 518.214L561.761 523.44L533.142 550.699L540.263 589.578L505.5 570.78L470.737 589.578L477.858 550.699L449.259 523.44L488.425 518.214L505.5 482.57V482.57Z" fill="#1E40AF"/>
<path fill-rule="evenodd" clip-rule="evenodd" d="M635.997 482.57L653.072 518.214L692.238 523.44L663.639 550.699L670.76 589.578L635.997 570.78L601.234 589.578L608.355 550.699L579.736 523.44L618.902 518.214L635.997 482.57Z" fill="white"/>
<path fill-rule="evenodd" clip-rule="evenodd" d="M643.482 478.99L658.624 510.576L693.329 515.208C697.866 515.802 701.082 519.975 700.489 524.512C700.221 526.484 699.302 528.206 697.981 529.47L672.617 553.628L678.934 588.085C679.757 592.584 676.771 596.929 672.253 597.752C670.32 598.097 668.425 597.752 666.817 596.891V596.91L635.997 580.236L605.158 596.91C601.119 599.073 596.084 597.561 593.902 593.522C592.906 591.665 592.677 589.597 593.117 587.702L599.377 553.628L574.013 529.47C570.682 526.311 570.548 521.047 573.725 517.716C575.161 516.204 577.018 515.362 578.951 515.17L613.37 510.576L628.512 478.99C630.484 474.856 635.442 473.113 639.577 475.085C641.357 475.947 642.697 477.344 643.482 478.99V478.99ZM635.997 482.57L653.072 518.214L692.238 523.44L663.639 550.699L670.76 589.578L635.997 570.78L601.234 589.578L608.355 550.699L579.736 523.44L618.902 518.214L635.997 482.57V482.57Z" fill="#1E40AF"/>
<path fill-rule="evenodd" clip-rule="evenodd" d="M440.262 575.413L457.337 611.037L496.523 616.282L467.904 643.542L475.025 682.402L440.262 663.623L405.499 682.402L412.62 643.542L384.001 616.282L423.187 611.037L440.262 575.413Z" fill="white"/>
<path fill-rule="evenodd" clip-rule="evenodd" d="M447.747 571.833L462.889 603.399L497.595 608.032C502.131 608.625 505.347 612.798 504.754 617.354C504.486 619.307 503.567 621.03 502.246 622.293L476.882 646.451L483.199 680.908C484.022 685.426 481.036 689.752 476.518 690.575C474.585 690.939 472.69 690.575 471.101 689.714L471.082 689.733L440.262 673.06L409.442 689.733C405.384 691.896 400.349 690.384 398.167 686.345C397.172 684.488 396.942 682.421 397.401 680.525L403.642 646.451L378.278 622.293C374.947 619.135 374.813 613.87 377.991 610.539C379.426 609.027 381.283 608.185 383.217 607.993L417.635 603.399L432.777 571.833C434.749 567.679 439.707 565.937 443.842 567.909C445.622 568.77 446.962 570.167 447.747 571.833V571.833ZM440.262 575.412L457.337 611.037L496.523 616.282L467.904 643.542L475.025 682.401L440.262 663.622L405.499 682.401L412.62 643.542L384.001 616.282L423.187 611.037L440.262 575.412V575.412Z" fill="#1E40AF"/>
<path fill-rule="evenodd" clip-rule="evenodd" d="M570.759 575.413L587.834 611.037L627 616.282L598.382 643.542L605.522 682.402L570.759 663.623L535.976 682.402L543.116 643.542L514.498 616.282L553.664 611.037L570.759 575.413Z" fill="white"/>
<path fill-rule="evenodd" clip-rule="evenodd" d="M578.244 571.833L593.367 603.399L628.073 608.032C632.629 608.625 635.826 612.798 635.232 617.354C634.983 619.307 634.064 621.03 632.724 622.293L607.379 646.451L613.697 680.908C614.52 685.426 611.533 689.752 607.016 690.575C605.082 690.939 603.187 690.575 601.579 689.714V689.733L570.74 673.06L539.92 689.733C535.881 691.896 530.828 690.384 528.664 686.345C527.669 684.488 527.439 682.421 527.88 680.525L534.12 646.451L508.775 622.293C505.444 619.135 505.31 613.87 508.469 610.539C509.904 609.027 511.78 608.185 513.695 607.993L548.133 603.399L563.255 571.833C565.246 567.679 570.204 565.937 574.339 567.909C576.119 568.77 577.44 570.167 578.244 571.833V571.833ZM570.74 575.412L587.835 611.037L627.001 616.282L598.382 643.542L605.523 682.401L570.74 663.622L535.977 682.401L543.117 643.542L514.499 616.282L553.665 611.037L570.74 575.412Z" fill="#1E40AF"/>
<path d="M160.702 417.657L179.864 422.73L181.031 418.289C181.721 415.724 181.51 413.771 180.419 412.431C179.098 411.168 176.629 410.057 173.011 409.1C168.761 407.971 165.832 408.009 164.205 409.177C163.152 409.923 162.176 412.086 161.238 415.628L160.702 417.657V417.657ZM219.508 452.286L142.229 431.823L147.302 412.737C150.001 402.515 153.255 395.873 157.026 392.791C161.41 389.326 168.416 388.885 178.083 391.45C180.725 392.14 182.525 392.656 183.501 392.982C184.496 393.384 185.913 394.035 187.731 394.915C189.607 395.796 191.349 397.155 192.976 398.974C197.054 403.338 198.164 409.119 196.269 416.317L193.608 426.367L224.217 434.483L219.508 452.286V452.286ZM232.334 401.252L161.946 363.387L181.338 327.341L194.929 334.654L184.267 354.486L198.241 361.99L207.582 344.627L221.174 351.94L211.832 369.302L227.472 377.725L238.555 357.128L252.147 364.44L232.334 401.252V401.252ZM267.097 338.636L202.797 291.123L225.653 260.208L238.058 269.377L226.151 285.495L238.919 294.914L249.563 280.499L261.986 289.668L251.343 304.083L278.047 323.819L267.097 338.636V338.636ZM264.054 250.828L291.677 279.063C293.38 280.786 294.969 281.839 296.481 282.222C297.841 282.49 299.219 281.935 300.616 280.576C302.167 279.044 302.607 277.302 301.918 275.35C301.267 274.029 300.367 272.804 299.257 271.655L271.615 243.419C270.275 242.06 269.069 241.084 267.997 240.567C266.14 239.84 264.417 240.28 262.752 241.907C261.163 243.458 260.665 245.161 261.259 247.018C261.91 248.339 262.828 249.603 264.054 250.828V250.828ZM277.396 290.798L252.013 264.878C246.729 259.461 244.279 253.776 244.643 247.784C244.968 242.118 247.706 236.777 252.817 231.762C257.87 226.823 263.345 224.219 269.222 223.951C275.061 223.722 280.612 226.287 285.915 231.704L311.279 257.604C316.218 262.658 318.61 268.152 318.457 274.086C318.342 280.078 315.701 285.61 310.513 290.683C305.345 295.756 299.812 298.283 293.859 298.321C287.867 298.397 282.392 295.89 277.396 290.798V290.798ZM327.684 274.794L296.194 199.851L316.62 186.451L373.014 245.047L356.896 255.633L347.65 244.683L336.873 251.766L343.094 264.687L327.684 274.794V274.794ZM330.67 238.844L338.347 233.81L313.289 203.469L330.67 238.844V238.844ZM374.22 241.563L351.44 164.953L379.255 156.684L395.545 193.151L389.4 153.659L417.215 145.389L440.014 222.018L422.958 227.072L405.251 167.538L412.889 230.077L401.384 233.504L373.799 176.898L391.315 236.49L374.22 241.563V241.563ZM466.565 151.534L466.488 136.086L508.736 135.875L508.813 151.324L496.887 151.381L497.213 215.873L478.797 215.969L478.472 151.477L466.565 151.534V151.534ZM511.282 213.92L522.921 134.842L546.984 138.383C555.1 139.57 560.747 141.848 563.944 145.217C567.16 148.624 568.251 153.87 567.218 160.895C566.471 165.968 565.303 169.682 563.734 172.094C561.685 175.041 558.297 176.898 553.55 177.607C556.747 178.659 559.101 180.535 560.575 183.177C562.183 185.685 562.738 188.595 562.26 191.906L560.192 205.88L559.369 211.489C559.254 212.274 559.139 213.002 559.063 213.652C558.948 214.38 558.89 215.165 558.91 215.95C558.642 217.883 558.948 219.587 559.886 221.08L541.873 218.419C541.375 217.672 541.088 216.026 540.954 213.499C541.011 211.374 541.164 209.403 541.432 207.546C541.662 205.67 541.834 204.215 541.987 203.201L543.863 190.49C544.17 188.327 543.883 186.604 542.983 185.321C542.102 184.115 540.418 183.33 537.91 182.947L534.522 182.45L529.506 216.6L511.282 213.92V213.92ZM539.154 150.998L536.513 169.012L540.935 169.662C543.576 170.064 545.548 169.433 546.792 167.767L547.73 165.489L548.553 161.278C549.013 158.177 549.032 155.994 548.611 154.712C547.922 153.066 545.95 151.994 542.715 151.515L539.154 150.998ZM596.985 147.476L620.377 154.444L612.05 235.456L593.462 229.943L595.874 215.816L583.527 212.14L577.65 225.234L560.001 219.989L596.985 147.476V147.476ZM612.165 132.851L627.058 137.273L613.045 147.265L603.819 144.528L612.165 132.851ZM589.385 199.066L598.191 201.688L605.235 162.867L589.385 199.066V199.066ZM613.524 236.183L652.288 166.274L669.88 176.037L659.983 224.411L683.012 183.311L698.594 191.945L659.83 261.854L642.334 252.149L653.245 201.707L629.125 244.836L613.524 236.183V236.183ZM678.016 247.325L700.892 219.204C705.677 213.327 711.056 210.245 717.048 209.939C722.733 209.613 728.323 211.738 733.894 216.256C739.369 220.716 742.776 225.253 744.116 229.847C745.724 235.437 744.327 240.969 739.905 246.406L734.296 253.297L720.743 242.252L725.758 236.069C728.419 232.814 728.247 229.962 725.222 227.512C723.71 226.287 721.929 226 719.9 226.65C718.445 227.34 717.22 228.335 716.206 229.56L691.282 260.208C689.75 262.084 688.889 263.787 688.678 265.338C688.583 266.716 689.272 268.018 690.784 269.262C693.809 271.712 696.604 271.387 699.13 268.286L705.62 260.303L700.585 256.207L709.927 244.721L728.802 260.055L701.026 294.205L688.525 284.021L692.622 278.987C686.726 280.863 681.366 279.848 676.542 275.924C671.948 272.172 669.957 267.558 670.569 262.065C671.182 257.566 673.671 252.665 678.016 247.325V247.325ZM721.279 316.085L784.813 267.578L800.281 287.831C804.492 293.344 806.464 298.225 806.196 302.494C805.813 306.725 802.903 310.917 797.448 315.09C793.351 318.21 789.982 320.067 787.321 320.661C783.837 321.56 780.181 320.814 776.352 318.459C778.343 322.403 778.611 326.097 777.137 329.562C775.682 333.046 772.945 336.319 768.925 339.382C763.24 343.728 757.86 345.948 752.769 346.063C747.083 346.101 741.857 343.038 737.148 336.874L721.279 316.085V316.085ZM760.521 309.309L743.293 322.46L745.59 325.485C747.255 327.667 748.94 328.701 750.605 328.605C752.347 328.337 754.932 326.901 758.377 324.259C761.153 322.154 762.933 320.373 763.756 318.938C764.924 316.851 764.694 314.765 763.067 312.64L760.521 309.309ZM785.177 290.472L770.839 301.422L772.907 304.14C774.496 306.208 776.314 307.069 778.362 306.744C779.932 306.399 781.885 305.346 784.22 303.566C786.594 301.747 788.106 300.082 788.738 298.608C789.369 297.115 789.006 295.488 787.666 293.746L785.177 290.472ZM830.086 335.822L840.117 358.085L773.366 404.736L765.403 387.067L777.654 379.659L772.352 367.905L758.607 372.021L751.046 355.232L830.086 335.822ZM786.077 363.808L789.848 372.174L823.846 352.131L786.077 363.808ZM751.467 374.815L758.53 390.474L747.753 395.336L740.689 379.678L751.467 374.815ZM794.213 399.471L828.65 388.139C835.848 385.765 842.031 386.091 847.257 389.058C852.196 391.852 855.776 396.657 858.015 403.453C860.236 410.172 860.159 416.24 857.786 421.639C855.431 426.979 850.684 430.808 843.486 433.182L836.499 435.479L830.737 417.982L839.256 415.188C841.093 414.575 842.491 413.924 843.429 413.197C844.883 411.857 845.266 410.096 844.539 407.894C843.85 405.788 842.529 404.602 840.615 404.314C839.141 404.314 837.59 404.582 835.944 405.118L798.424 417.485C796.127 418.231 794.481 419.208 793.485 420.394C792.643 421.485 792.528 422.979 793.121 424.816C793.811 426.903 795.189 428.051 797.256 428.3C798.73 428.3 800.223 428.032 801.736 427.535L812.877 423.878L818.639 441.375L809.048 444.533C802.329 446.735 796.337 446.467 791.073 443.691C785.751 440.954 781.961 436.13 779.683 429.257C777.424 422.385 777.597 416.279 780.181 410.938C782.765 405.52 787.436 401.711 794.213 399.471Z" fill="#1E40AF"/>
<g clip-path="url(#clip0_157_549)">
<path fill-rule="evenodd" clip-rule="evenodd" d="M551.69 408.774H541.809C540.269 408.774 538.967 408.163 537.984 406.968C537.028 405.772 536.683 404.364 537.002 402.85L543.456 372.093H534.771L526.032 413.316C526.059 413.316 526.085 413.316 526.112 413.289C534.478 412.413 543.137 410.952 551.69 408.774V408.774ZM512.273 292.118C513.15 291.321 514.292 290.869 515.567 290.869H533.549L545.315 279.13C546.882 277.562 549.193 277.217 551.132 278.279C553.071 279.342 554.054 281.467 553.602 283.618L552.062 290.869H564.731C566.67 290.869 568.344 291.958 569.167 293.658C574.028 291.746 579.632 291.055 584.466 291.055H595.409C596.95 291.055 598.278 291.693 599.234 292.888C600.19 294.083 600.535 295.491 600.217 297.005L597.375 310.471C598.304 310.339 599.287 310.525 600.19 310.976C619.181 320.697 639.925 337.457 639.925 360.805C639.925 381.921 622.847 397.724 605.874 407.525C582.288 421.178 552.513 427.845 525.554 429.943C524.491 430.023 523.482 429.783 522.632 429.279C519.817 440.727 506.35 443.781 496.071 443.781H485.128C483.587 443.781 482.259 443.143 481.303 441.948C480.347 440.753 480.002 439.345 480.32 437.831L482.047 429.624C481.728 429.677 481.383 429.677 481.011 429.65C454.795 427.26 425.844 420.434 403.002 406.888C386.454 397.06 370.066 381.469 370.066 360.805C370.066 337.059 391.501 320.113 410.864 310.445C438.965 296.394 473.813 290.869 504.996 290.869C506.377 290.869 507.758 290.896 509.139 290.922C510.361 290.922 511.397 291.348 512.273 292.118V292.118ZM557.799 304.973L547.945 310.126L543.961 328.878C543.934 329.117 543.854 329.356 543.775 329.569L539.605 349.277H548.37L557.507 306.142C557.586 305.743 557.693 305.345 557.799 304.973V304.973ZM529.432 322.929L527.785 320.698L523.509 322.929H526.855H529.432ZM495.513 366.143L454.025 407.632C463.614 410.367 473.521 412.2 483.402 413.262C484.119 413.342 484.809 413.555 485.394 413.9L495.513 366.143V366.143ZM500.055 324.389V324.363L517.479 306.939C516.736 307.311 515.886 307.496 515.009 307.47C511.662 307.284 508.342 307.204 504.996 307.204C492.087 307.204 478.382 308.453 465.048 311.242C472.963 314.429 477.479 322.955 475.486 332.252L470.998 353.421L500.055 324.389V324.389ZM434.317 321.229C432.564 322.025 430.837 322.875 429.138 323.778C415.485 331.03 399.389 343.752 399.389 360.805C399.389 374.855 410.332 385.958 421.7 393.448L434.317 321.229ZM578.57 398.999C580.721 397.91 582.819 396.768 584.865 395.573C596.1 388.933 608.265 378.414 610.31 364.736C610.496 363.434 610.602 362.133 610.602 360.805C610.602 348.56 602.182 338.52 592.912 331.428L578.57 398.999V398.999Z" fill="white"/>
<path fill-rule="evenodd" clip-rule="evenodd" d="M526.616 418.203C577.295 412.864 615.516 389.198 615.516 360.804C615.516 348.294 608.079 336.687 595.436 327.178L597.959 315.359C620.881 327.072 635.012 343.115 635.012 360.804C635.012 393.289 587.388 420.195 525.155 425.029L526.616 418.203V418.203ZM590.044 321.361L587.813 331.8L587.388 333.818L572.514 403.86H541.809L549.538 367.179H530.786L523.748 400.354L523.004 403.86L517.957 427.685C516.204 435.972 506.031 438.867 496.071 438.867H485.128L492.538 403.86L508.661 327.869H539.126L533.549 354.191H552.354L559.286 321.361H559.313L562.314 307.151C564.067 298.864 574.506 295.969 584.466 295.969H595.409L590.044 321.361V321.361Z" fill="#1E40AF"/>
<path fill-rule="evenodd" clip-rule="evenodd" d="M504.996 295.81C506.35 295.81 507.705 295.809 509.059 295.836L514.77 301.892L515.248 302.556C511.875 302.37 508.448 302.29 504.996 302.29C443.958 302.29 394.475 328.506 394.475 360.804C394.475 376.555 406.215 390.818 425.313 401.336L440.426 314.854H458.009C465.845 314.854 472.777 321.361 470.679 331.242L462.737 368.64L503.535 327.869L524.04 307.337L515.567 295.81H535.594L548.795 282.609L545.979 295.81H564.731L543.642 306.859L539.153 327.869L529.246 314.376L503.535 327.869H526.855L444.808 409.889C456.23 413.82 469.085 416.662 482.87 418.149L481.463 424.736C420.903 419.212 374.979 392.704 374.979 360.804C374.979 324.894 433.201 295.81 504.996 295.81V295.81Z" fill="#B91C1C"/>
</g>
<defs>
<clipPath id="clip0_157_549">
<rect width="269.859" height="166.112" fill="white" transform="translate(370.066 277.668)"/>
</clipPath>
</defs>
</svg>
